<svg width="180" height="180" viewBox="0 0 180 180" fill="none" xmlns="http://www.w3.org/2000/svg">
  <style>
    @media (prefers-color-scheme: light) {
      .bg { fill: #0f172a; }
      .shield { fill: #22c55e; }
      .check { fill: white; }
    }
    @media (prefers-color-scheme: dark) {
      .bg { fill: #0f172a; }
      .shield { fill: #22c55e; }
      .check { fill: white; }
    }
  </style>
  <defs>
    <clipPath id="clip0">
      <rect width="180" height="180" rx="37" />
    </clipPath>
  </defs>
  <g clip-path="url(#clip0)">
    <!-- Background -->
    <rect class="bg" width="180" height="180" rx="37" />
    <!-- Shield outline -->
    <path class="shield" d="M90 25C90 25 45 40 45 75C45 110 90 155 90 155C90 155 135 110 135 75C135 40 90 25 90 25Z" opacity="0.2"/>
    <path class="shield" d="M90 32C90 32 52 45 52 75C52 105 90 145 90 145C90 145 128 105 128 75C128 45 90 32 90 32Z" stroke-width="4" stroke="#22c55e" fill="none"/>
    <!-- Check mark -->
    <path class="check" d="M75 90L85 100L105 75" stroke="#22c55e" stroke-width="8" stroke-linecap="round" stroke-linejoin="round" fill="none"/>
    <!-- NS text -->
    <text x="90" y="130" text-anchor="middle" font-family="Arial, sans-serif" font-size="20" font-weight="bold" fill="#22c55e">NS</text>
  </g>
</svg>